<svg xmlns="http://www.w3.org/2000/svg" viewBox="0 0 512 512"><style>.a{fill:#82AFFF;}</style><path d="M512 200.1H0V97.1c0-4.9 4-8.8 8.8-8.8h494.3c4.9 0 8.8 4 8.8 8.8L512 200.1 512 200.1z" class="a"/><path d="M503.2 423.7H8.8c-4.9 0-8.8-4-8.8-8.8V311.9h512v103C512 419.8 508 423.7 503.2 423.7z" class="a"/><rect y="200.1" width="512" height="111.8" fill="#F5F5F5"/><path d="M300.1 253.8h-31.8c0.6-0.4 1.1-0.9 1.5-1.3 0.8-0.8 1.4-1.4 3-2 1.6-0.7 2.5-0.7 3.6-0.7 1.3 0 2.8 0 5.2-1 2.4-1 3.5-2 4.4-3 0.8-0.8 1.4-1.4 3-2 1.6-0.7 2.5-0.7 3.6-0.7 1.3 0 2.8 0 5.2-1l-1.7-4.1c-1.6 0.7-2.5 0.7-3.6 0.7 -1.3 0-2.8 0-5.2 1 -2.4 1-3.5 2-4.4 3 -0.8 0.8-1.4 1.4-3 2 -1.6 0.7-2.5 0.7-3.6 0.7 -1.3 0-2.8 0-5.2 1 -2.4 1-3.5 2-4.4 3 -0.8 0.7-1.4 1.3-3 2l25-25 -3.1-3.1 -22.5 22.5c0.1-0.7 0.1-1.4 0.1-2 0-1.1 0-1.9 0.7-3.6s1.3-2.3 2-3c0.9-0.9 2-2 3-4.4 1-2.4 1-3.9 1-5.2 0-1.1 0-1.9 0.7-3.6 0.7-1.6 1.3-2.2 2-3 0.9-0.9 2-2 3-4.4l-4.1-1.7c-0.7 1.6-1.3 2.3-2 3 -0.9 0.9-2 2-3 4.4 -1 2.4-1 3.9-1 5.2 0 1.1 0 1.9-0.7 3.6 -0.7 1.6-1.3 2.3-2 3 -0.9 0.9-2 2-3 4.4 -1 2.4-1 3.9-1 5.2 0 1.1 0 1.9-0.7 3.5v-35.3h-4.4v31.8c-0.4-0.6-0.9-1.1-1.3-1.5 -0.8-0.8-1.4-1.4-2-3 -0.7-1.6-0.7-2.5-0.7-3.6 0-1.3 0-2.8-1-5.2 -1-2.4-2-3.5-3-4.4 -0.8-0.8-1.4-1.4-2-3 -0.7-1.6-0.7-2.5-0.7-3.6 0-1.3 0-2.8-1-5.2l-4.1 1.7c0.7 1.6 0.7 2.5 0.7 3.6 0 1.3 0 2.8 1 5.2 1 2.4 2 3.5 3 4.4 0.8 0.8 1.4 1.4 2 3 0.7 1.6 0.7 2.5 0.7 3.6 0 1.3 0 2.8 1 5.2 1 2.4 2 3.5 3 4.4 0.7 0.8 1.3 1.4 2 3l-25-25 -3.1 3.1 24.9 24.9c-1.4-0.6-2-1.2-2.7-1.9 -0.9-0.9-2-2-4.4-3 -2.4-1-3.9-1-5.2-1 -1.1 0-2 0-3.6-0.7 -1.7-0.7-2.3-1.3-3.1-2.1 -0.9-0.9-2-2-4.5-3 -2.4-1-3.9-1-5.2-1 -1.1 0-2 0-3.6-0.7l-1.7 4.1c2.4 1 3.9 1 5.3 1 1.1 0 2 0 3.6 0.7 1.7 0.7 2.3 1.3 3.1 2.1 0.9 0.9 2 2 4.5 3 2.4 1 3.9 1 5.2 1.1 1.1 0 2 0 3.6 0.7 1.7 0.7 2.3 1.3 3 2 0.4 0.4 0.8 0.8 1.4 1.2H211.9v4.4h35.3c-1.4 0.5-2.3 0.6-3.3 0.6 -1.3 0-2.8 0-5.2 1 -2.4 1-3.5 2.1-4.4 3 -0.8 0.8-1.4 1.4-3.1 2.1 -1.7 0.7-2.5 0.7-3.6 0.7 -1.3 0-2.8 0-5.2 1 -2.4 1-3.5 2.1-4.5 3 -0.8 0.8-1.4 1.4-3.1 2.1l1.7 4.1c2.4-1 3.5-2.1 4.5-3 0.8-0.8 1.4-1.4 3.1-2.1 1.7-0.7 2.5-0.7 3.6-0.7 1.3 0 2.8 0 5.3-1.1 2.4-1 3.5-2 4.4-3 0.8-0.8 1.4-1.4 3.1-2 1.6-0.7 2.5-0.7 3.6-0.7 0.6 0 1.2 0 1.9-0.1l-22.5 22.5 3.1 3.1 24.9-24.9c-0.6 1.4-1.2 2-1.9 2.7 -0.9 0.9-2 2-3 4.4 -1 2.4-1 3.9-1 5.2 0 1.1 0 2-0.7 3.6 -0.7 1.7-1.3 2.3-2.1 3.1 -0.9 0.9-2 2-3 4.5s-1 3.9-1 5.3c0 1.1 0 2-0.7 3.6l4.1 1.7c1-2.4 1-3.9 1-5.2 0-1.1 0-2 0.7-3.6 0.7-1.7 1.3-2.3 2.1-3.1 0.9-0.9 2-2 3-4.5 1-2.4 1-3.9 1-5.2 0-1.1 0-2 0.7-3.6 0.7-1.7 1.3-2.3 2-3.1 0.4-0.4 0.8-0.9 1.2-1.4v31.9h4.4v-35.3c0.5 1.4 0.6 2.3 0.6 3.3 0 1.3 0 2.8 1 5.2 1 2.4 2 3.5 3 4.4 0.8 0.8 1.4 1.4 2.1 3.1 0.7 1.7 0.7 2.5 0.7 3.6 0 1.3 0 2.8 1 5.3s2.1 3.5 3 4.5c0.8 0.8 1.4 1.4 2.1 3.1l4.1-1.7c-1-2.4-2.1-3.5-3-4.5 -0.8-0.8-1.4-1.4-2.1-3.1 -0.7-1.7-0.7-2.5-0.7-3.6 0-1.3 0-2.8-1-5.2 -1-2.4-2-3.5-3-4.4 -0.8-0.8-1.4-1.4-2.1-3.1 -0.7-1.6-0.7-2.5-0.7-3.6 0-0.6 0-1.2-0.1-1.9l22.6 22.6 3.1-3.1 -22.5-22.5c0.7 0.1 1.4 0.1 2 0.1 1.1 0 1.9 0 3.6 0.7 1.6 0.7 2.3 1.3 3 2.1 0.9 0.9 2 2 4.4 3 2.4 1 3.9 1 5.2 1 1.1 0 1.9 0 3.6 0.7 1.6 0.7 2.3 1.3 3 2 0.9 0.9 2 2 4.4 3l1.7-4.1c-1.6-0.7-2.2-1.3-3-2 -0.9-0.9-2-2-4.4-3 -2.4-1-3.9-1-5.2-1 -1.1 0-1.9 0-3.6-0.7 -1.6-0.7-2.3-1.3-3-2 -0.9-0.9-2-2-4.4-3 -2.4-1-3.9-1-5.2-1 -1.1 0-1.9 0-3.5-0.7h35.4v-4.4H300.1z" fill="#F09146"/><circle cx="256" cy="256" r="22.1" fill="#FFE15A"/></svg>