<svg xmlns="http://www.w3.org/2000/svg" viewBox="0 0 512 512"><style>.a{fill:#F5F5F5;}</style><path d="M503.2 423.7H8.8c-4.9 0-8.8-4-8.8-8.8V97.1c0-4.9 4-8.8 8.8-8.8h494.3c4.9 0 8.8 4 8.8 8.8v317.8C512 419.8 508 423.7 503.2 423.7z" fill="#73AF00"/><path d="M251.4 135.2L65.4 248.5c-5.7 3.4-5.7 11.6 0 15.1L251.4 376.8c2.8 1.7 6.4 1.7 9.2 0l186.1-113.3c5.7-3.4 5.7-11.6 0-15.1L260.6 135.2C257.8 133.5 254.2 133.5 251.4 135.2z" fill="#FFE15A"/><circle cx="256" cy="256" r="70.6" fill="#41479B"/><path d="M195.4 219.9c-3.3 5.6-5.9 11.6-7.6 18.1 39.1-2.9 97.1 8 133.9 43.8 2.4-6.1 4-12.7 4.6-19.5C288.2 230.2 235.6 218.8 195.4 219.9z" class="a"/><path d="M258.9 280.1l1.9 5.6 5.9 0c0.8 0 1.1 1 0.5 1.4l-4.8 3.5 1.8 5.7c0.2 0.7-0.6 1.3-1.2 0.9l-4.8-3.5 -4.8 3.5c-0.6 0.4-1.5-0.2-1.2-0.9l1.8-5.7 -4.8-3.5c-0.6-0.5-0.3-1.4 0.5-1.4l5.9 0 1.9-5.6C257.6 279.4 258.7 279.4 258.9 280.1z" class="a"/><path d="M282 294.7l0.8 2.4 2.6 0c0.3 0 0.5 0.4 0.2 0.6l-2.1 1.5 0.8 2.4c0.1 0.3-0.3 0.6-0.5 0.4l-2.1-1.5 -2.1 1.5c-0.3 0.2-0.6-0.1-0.5-0.4l0.8-2.4 -2.1-1.5c-0.3-0.2-0.1-0.6 0.2-0.6l2.6 0 0.8-2.4C281.5 294.4 281.9 294.4 282 294.7z" class="a"/><path d="M248.9 269.4l0.8 2.4 2.6 0c0.3 0 0.5 0.4 0.2 0.6l-2.1 1.5 0.8 2.4c0.1 0.3-0.3 0.6-0.5 0.4l-2.1-1.5 -2.1 1.5c-0.3 0.2-0.6-0.1-0.5-0.4l0.8-2.4 -2.1-1.5c-0.3-0.2-0.1-0.6 0.2-0.6l2.6 0 0.8-2.4C248.4 269.1 248.8 269.1 248.9 269.4z" class="a"/><path d="M204.1 266.4l0.8 2.4 2.6 0c0.3 0 0.5 0.4 0.2 0.6l-2.1 1.5 0.8 2.4c0.1 0.3-0.3 0.6-0.5 0.4l-2.1-1.5 -2.1 1.5c-0.3 0.2-0.6-0.1-0.5-0.4l0.8-2.4 -2.1-1.5c-0.3-0.2-0.1-0.6 0.2-0.6l2.6 0 0.8-2.4C203.6 266.1 204 266.1 204.1 266.4z" class="a"/><path d="M241.6 293.8l0.8 2.4 2.6 0c0.3 0 0.5 0.4 0.2 0.6l-2.1 1.5 0.8 2.4c0.1 0.3-0.3 0.6-0.5 0.4l-2.1-1.5 -2.1 1.5c-0.3 0.2-0.6-0.1-0.5-0.4l0.8-2.4 -2.1-1.5c-0.3-0.2-0.1-0.6 0.2-0.6l2.6 0 0.8-2.4C241.1 293.5 241.5 293.5 241.6 293.8z" class="a"/><path d="M221 264.8l0.7 2 2.1 0c0.3 0 0.4 0.3 0.2 0.5l-1.7 1.2 0.6 2c0.1 0.3-0.2 0.5-0.4 0.3l-1.7-1.2 -1.7 1.2c-0.2 0.2-0.5-0.1-0.4-0.3l0.6-2 -1.7-1.2c-0.2-0.2-0.1-0.5 0.2-0.5l2.1 0 0.7-2C220.5 264.5 220.9 264.5 221 264.8z" class="a"/><path d="M283.8 223.8l0.8 2.5 2.6 0c0.3 0 0.5 0.4 0.2 0.6l-2.1 1.6 0.8 2.5c0.1 0.3-0.3 0.6-0.5 0.4l-2.1-1.5 -2.1 1.5c-0.3 0.2-0.6-0.1-0.5-0.4l0.8-2.5 -2.1-1.6c-0.3-0.2-0.1-0.6 0.2-0.6l2.6 0 0.8-2.5C283.3 223.5 283.7 223.5 283.8 223.8z" class="a"/><path d="M207 252.6l0.7 2 2.1 0c0.3 0 0.4 0.3 0.2 0.5l-1.7 1.2 0.6 2c0.1 0.3-0.2 0.5-0.4 0.3l-1.7-1.2 -1.7 1.2c-0.2 0.2-0.5-0.1-0.4-0.3l0.6-2 -1.7-1.2c-0.2-0.2-0.1-0.5 0.2-0.5l2.1 0 0.7-2C206.6 252.4 206.9 252.4 207 252.6z" class="a"/><path d="M217.1 280.6l1 3 3.2 0c0.4 0 0.6 0.5 0.3 0.8l-2.5 1.9 1 3c0.1 0.4-0.3 0.7-0.7 0.5l-2.6-1.8 -2.6 1.8c-0.3 0.2-0.8-0.1-0.7-0.5l1-3 -2.5-1.9c-0.3-0.2-0.2-0.8 0.3-0.8l3.2 0 1-3C216.4 280.2 217 280.2 217.1 280.6z" class="a"/><path d="M294.9 295.3l0.6 1.9 2 0c0.3 0 0.4 0.3 0.2 0.5l-1.6 1.2 0.6 1.9c0.1 0.2-0.2 0.4-0.4 0.3l-1.6-1.2 -1.6 1.2c-0.2 0.2-0.5-0.1-0.4-0.3l0.6-1.9 -1.6-1.2c-0.2-0.2-0.1-0.5 0.2-0.5l2 0 0.6-1.9C294.5 295.1 294.8 295.1 294.9 295.3z" class="a"/><path d="M301.9 280.9l0.8 2.4 2.6 0c0.3 0 0.5 0.4 0.2 0.6l-2.1 1.5 0.8 2.4c0.1 0.3-0.3 0.6-0.5 0.4l-2.1-1.5 -2.1 1.5c-0.3 0.2-0.6-0.1-0.5-0.4l0.8-2.4 -2.1-1.5c-0.3-0.2-0.1-0.6 0.2-0.6l2.6 0 0.8-2.4C301.3 280.6 301.8 280.6 301.9 280.9z" class="a"/></svg>