<svg xmlns="http://www.w3.org/2000/svg" width="390" height="512" viewBox="0 0 390 512"><defs><path d="M180 183C146 189 120 220 120 256 120 292 146 323 180 329L180 451 -16 451C-41 451-61 431-61 406L-61 361 14 361C39 361 59 341 59 316L59 196C59 171 39 151 14 151L-61 151 -61 106C-61 81-41 61-16 61L180 61 180 183ZM210 183L210 61 406 61C431 61 451 81 451 106L451 151 376 151C351 151 331 171 331 196L331 316C331 341 351 361 376 361L451 361 451 406C451 431 431 451 406 451L210 451 210 329C244 323 270 292 270 256 270 220 244 189 210 183ZM451 331L376 331C368 331 361 324 361 316L361 196C361 188 368 181 376 181L451 181 451 331ZM-61 331L-61 181 14 181C22 181 29 188 29 196L29 316C29 324 22 331 14 331L-61 331ZM195 301C170 301 150 281 150 256 150 231 170 211 195 211 220 211 240 231 240 256 240 281 220 301 195 301Z"/></defs><g fill="none"><mask fill="white"><use xlink:href="#path-1"/></mask><use transform="translate(195 256)rotate(90)translate(-195 -256)" xlink:href="#path-1" fill="#00C853"/></g></svg>