<svg xmlns="http://www.w3.org/2000/svg" width="390" height="512" viewBox="0 0 390 512"><style>.a{fill:#00C853;}</style><g fill="none"><path d="M121.5 271C128.5 305.2 158.7 331 195 331 231.3 331 261.5 305.2 268.5 271L390 271 390 467C390 491.9 369.9 512 345 512L300 512 300 437C300 412.2 279.8 392 255 392L135 392C110.2 392 90 412.2 90 437L90 512 45 512C20.1 512 0 491.9 0 467L0 271 121.5 271Z" class="a"/><path d="M121.5 241L0 241 0 45C0 20.1 20.1 0 45 0L90 0 90 75C90 99.8 110.2 120 135 120L255 120C279.8 120 300 99.8 300 75L300 0 345 0C369.9 0 390 20.1 390 45L390 241 268.5 241C261.5 206.8 231.3 181 195 181 158.7 181 128.5 206.8 121.5 241Z" class="a"/><path d="M270 0L270 75C270 83.3 263.3 90 255 90L135 90C126.7 90 120 83.3 120 75L120 0 270 0Z" class="a"/><path d="M270 512L120 512 120 437C120 428.7 126.7 422 135 422L255 422C263.3 422 270 428.7 270 437L270 512Z" class="a"/><path d="M240 256C240 280.9 219.9 301 195 301 170.1 301 150 280.9 150 256 150 231.1 170.1 211 195 211 219.9 211 240 231.1 240 256Z" class="a"/></g></svg>