<svg xmlns="http://www.w3.org/2000/svg" viewBox="0 0 512 512"><style>.a{fill:#FF4B55;}.b{fill:#FFE15A;}.c{fill:#41479B;}</style><path d="M503.2 423.7H8.8c-4.9 0-8.8-4-8.8-8.8V97.1c0-4.9 4-8.8 8.8-8.8h494.3c4.9 0 8.8 4 8.8 8.8v317.8C512 419.8 508 423.7 503.2 423.7z" class="a"/><path d="M185.4 88.3H8.8C4 88.3 0 92.2 0 97.1v317.8c0 4.9 4 8.8 8.8 8.8H185.4V88.3H185.4z" fill="#73AF00"/><circle cx="185.5" cy="256" r="79.4" class="b"/><path d="M211.9 229.5v35.3c0 14.6-11.9 26.5-26.5 26.5s-26.5-11.9-26.5-26.5v-35.3H211.9M220.8 211.9h-70.6c-4.9 0-8.8 4-8.8 8.8v44.1c0 24.4 19.8 44.1 44.1 44.1s44.1-19.8 44.1-44.1v-44.1C229.6 215.8 225.6 211.9 220.8 211.9L220.8 211.9z" class="a"/><path d="M211.9 229.5v35.3c0 14.6-11.9 26.5-26.5 26.5s-26.5-11.9-26.5-26.5v-35.3H211.9" fill="#F5F5F5"/><circle cx="150.1" cy="220.7" r="4.4" class="b"/><circle cx="220.7" cy="220.7" r="4.4" class="b"/><circle cx="150.1" cy="256" r="4.4" class="b"/><circle cx="220.7" cy="256" r="4.4" class="b"/><circle cx="185.4" cy="220.7" r="4.4" class="b"/><circle cx="211.9" cy="288.6" r="4.4" class="b"/><circle cx="159.4" cy="288.6" r="4.4" class="b"/><path d="M191.1 253.8v7.6c0 3.1-2.6 5.7-5.7 5.7s-5.7-2.6-5.7-5.7v-7.6L191.1 253.8" class="c"/><path d="M191.1 235.7v7.6c0 3.1-2.6 5.7-5.7 5.7s-5.7-2.6-5.7-5.7v-7.6H191.1" class="c"/><path d="M191.1 272v7.6c0 3.1-2.6 5.7-5.7 5.7s-5.7-2.6-5.7-5.7v-7.6H191.1" class="c"/><path d="M206.5 253.8v7.6c0 3.1-2.6 5.7-5.7 5.7s-5.7-2.6-5.7-5.7v-7.6L206.5 253.8" class="c"/><path d="M175.8 253.8v7.6c0 3.1-2.6 5.7-5.7 5.7s-5.7-2.6-5.7-5.7v-7.6L175.8 253.8" class="c"/></svg>