<svg xmlns="http://www.w3.org/2000/svg" width="496" height="488" viewBox="0 0 496 488"><style>.a{fill:#363636;}</style><title>  Untitled 2</title><desc>  Created with Sketch.</desc><g fill="none"><path d="M151 131L342 131C346.4 131 350 134.6 350 139L350 366C350 370.4 346.4 374 342 374L322.5 374C328.4 318.4 326.3 290.6 316.4 290.6 296.2 290.6 283.2 318.4 277.7 374L151 374C146.6 374 143 370.4 143 366L143 139C143 134.6 146.6 131 151 131Z" fill="#FF3860"/><path d="M328 119.9L168 119.9C150.4 119.9 136 134.3 136 151.9L136 351.9C136 366.8 146.2 379.2 160 382.8L160 487.9 176 487.9 176 383.9 280 383.9C284.4 383.9 288 380.3 288 375.9L288 327.9C288 313 298.2 300.5 312 296.9L312 487.9 328 487.9 328 383.9C345.6 383.9 360 369.6 360 351.9L360 151.9C360 134.3 345.6 119.9 328 119.9ZM344 351.9C344 360.7 336.8 367.9 328 367.9L328 287.9C328 283.5 324.4 279.9 320 279.9 293.5 279.9 272 301.4 272 327.9L272 367.9 168 367.9C159.2 367.9 152 360.7 152 351.9L152 151.9C152 143.1 159.2 135.9 168 135.9L328 135.9C336.8 135.9 344 143.1 344 151.9L344 351.9Z" class="a"/><path d="M492.7 241.4L447 208.3 476.6 160.2C477.9 158 478.2 155.3 477.2 153 476.2 150.6 474.1 148.8 471.6 148.2L416.7 135.2 425.6 79.5C426 76.9 425.2 74.4 423.4 72.5 421.6 70.7 419 69.9 416.5 70.3L360.7 79.2 347.7 24.3C347.1 21.8 345.3 19.7 342.9 18.7 340.6 17.8 337.9 18 335.7 19.3L287.6 48.9 254.5 3.2C251.5-0.9 244.5-0.9 241.5 3.2L208.4 48.9 160.3 19.3C158.1 18 155.4 17.8 153.1 18.7 150.7 19.7 148.9 21.8 148.3 24.3L135.3 79.2 79.6 70.3C77 69.9 74.4 70.7 72.6 72.5 70.8 74.3 70 76.9 70.4 79.4L79.3 135.2 24.4 148.2C21.9 148.8 19.8 150.6 18.8 153 17.8 155.3 18.1 158 19.4 160.2L49 208.3 3.3 241.4C1.2 242.9 0 245.3 0 247.9 0 250.5 1.2 252.9 3.3 254.4L49 287.5 19.4 335.6C18.1 337.8 17.8 340.5 18.8 342.8 19.8 345.2 21.9 347 24.4 347.6L79.3 360.6 70.4 416.3C70 418.9 70.8 421.4 72.6 423.3 74.4 425.1 77 425.9 79.5 425.5L142.6 415.5 140.1 399.7 87.9 408 96.2 355.8C96.9 351.7 94.2 347.7 90.2 346.8L38.8 334.5 66.5 289.6C68.7 286 67.7 281.4 64.3 278.9L21.6 247.9 64.4 216.9C67.7 214.4 68.7 209.8 66.5 206.2L38.8 161.2 90.2 149C94.3 148.1 96.9 144.1 96.2 140L87.9 87.8 140.1 96.1C144.1 96.8 148.2 94.1 149.1 90.1L161.4 38.7 206.3 66.4C209.9 68.6 214.5 67.6 217 64.3L248 21.5 279 64.3C281.5 67.6 286.1 68.6 289.7 66.4L334.6 38.7 346.9 90.1C347.8 94.2 351.7 96.8 355.9 96.1L408.1 87.8 399.8 140C399.1 144.1 401.8 148.1 405.8 149L457.2 161.2 429.5 206.2C427.3 209.8 428.3 214.4 431.6 216.9L474.4 247.9 431.6 278.9C428.3 281.4 427.3 286 429.5 289.6L457.2 334.6 405.8 346.8C401.7 347.8 399.1 351.7 399.8 355.8L408.1 408 355.9 399.7 353.4 415.5 416.4 425.5C416.9 425.6 417.3 425.6 417.7 425.6 419.8 425.6 421.8 424.8 423.4 423.3 425.2 421.5 426 418.9 425.6 416.4L416.7 360.6 471.6 347.6C474.1 347 476.2 345.2 477.2 342.8 478.1 340.5 477.9 337.8 476.6 335.6L447 287.5 492.7 254.4C494.8 252.9 496 250.5 496 247.9 496 245.3 494.8 242.9 492.7 241.4Z" class="a"/><rect x="168" y="151.9" width="16" height="16" class="a"/><rect x="168" y="183.9" width="16" height="16" class="a"/><rect x="168" y="215.9" width="16" height="16" class="a"/></g></svg>