<svg version="1" xmlns="http://www.w3.org/2000/svg" width="1365.333" height="1365.333" viewBox="0 0 1024.000000 1024.000000"><path d="M201.8.5c-.2.2-2.1.6-4.3.9-2.2.3-4.7.7-5.5.9-.8.2-2.8.7-4.5 1.1-6 1.5-20.2 8.2-26.4 12.5-11.1 7.7-20.4 17.9-27.4 29.8-3.7 6.3-9 20.7-10.4 27.8-.4 2.2-.9 95-1 206.2L122 482l5.7.1c3.2.1 6.3 0 6.8-.1.6-.1 5.7-.1 11.5 0s11.2.2 12 .1c.8-.1 2.6-.1 4 0h32c3-.1 10.2 0 16 0 5.8.1 11.2.1 12 0 .8-.1 2.6-.1 4 0h32c3-.1 10.2 0 16 0 5.8.1 11.2.1 12 0 .8-.1 2.6-.1 4 0h32c3-.1 10.2 0 16 0 5.8.1 11.1.1 11.8 0 2.1-.2 3.6-.2 7.2-.2 1.9 0 4.5.1 5.7.1 1.8 0 2.4-.9 3.3-4.3.6-2.3 1.7-6.2 2.6-8.7.8-2.5 1.7-5.6 2-7 .6-3.2 13-28.5 14.8-30.3.7-.7 2.1-2.7 3-4.5.9-1.8 2.1-3.2 2.6-3.2.6 0 1-.5 1-1.2 0-1.3 10.1-13 17-19.6 8.2-8 22.9-18.5 33.5-24 10.8-5.6 26.4-11.5 33.9-12.8 1.7-.2 3.9-.7 4.8-1 6.5-1.9 16.8-2.9 31.8-2.8 16.7.1 18 .3 34.6 3.8 4 .8 16.9 4.8 17.9 5.5.6.4 3.7 1.8 7 3.1s6.2 2.6 6.5 2.9c.3.3 3.5 2.2 7.3 4 3.7 1.9 6.7 3.9 6.7 4.4 0 .4.4.6.9.3.5-.4 1.1-.3 1.3.1.1.5 3.7 3.3 7.9 6.5 8.2 6.1 19.8 17.4 25.7 25 2 2.7 4 4.8 4.4 4.8.4 0 .8.9.8 1.9 0 1 .7 2.1 1.5 2.5.8.3 1.5 1.2 1.5 2.1 0 .8.4 1.5.9 1.5s1.7 1.8 2.7 4c1 2.2 2.2 4 2.8 4 .5 0 .6.3.3.6-.4.4.2 1.9 1.2 3.3.9 1.4 2.8 5.3 4.1 8.6 1.3 3.3 2.6 6.4 3 7 .6.9 4.3 12.1 4.5 13.5 0 .3.7 2.6 1.4 5.2l1.4 4.8 33.1.1c18.2.1 33.6 0 34.1-.1.6-.1 5.7-.1 11.5 0s11.2.2 12 .2c.8-.1 17-.1 36 0 19 0 35.2 0 36-.1h12c5.8.1 11.2.1 12 .1.8-.1 13.8-.1 28.8-.1H902l-.3-201.8c-.1-111-.6-203.4-1-205.3-.3-1.9-.9-4.9-1.3-6.5-1.9-9.2-9.8-25.8-15.1-31.9-1.3-1.5-2.3-2.9-2.3-3.1 0-.9-12.2-12.6-16-15.5-7.6-5.7-22.8-13.2-29.3-14.4-1.5-.2-3.1-.7-3.5-1-2.6-1.6-13.1-2-60-2.3l-51.3-.4V57c0 .8 0 18.8.1 40 .1 40-.4 64.4-1.5 69.5-1.1 5.7-3.5 13.4-5.7 18.2-1.2 2.6-2.2 5.1-2.2 5.5-.2 1.5-10.7 16.4-14.3 20.4-3.8 4.1-14 12.8-17.8 15.1-8.5 5.3-20.4 10.2-29.5 12.2-4.4 1-20 2.4-25.5 2.2-7.7-.1-118.2 0-124.3.2-4.5.1-8.2 0-8.2-.3s-4.2-.4-9.2-.2c-5.1.1-14.7.2-21.3.1-6.6 0-12.9 0-14 .1-1.1.1-2.4.1-3 .1-3.6 0-25-.1-35-.1-9.9 0-18.3-.2-32.5-1.1-4.3-.2-17.5-4.5-24.6-7.9-20.7-9.9-36.8-27.3-45.4-49-1.2-3-2.4-6.6-2.6-8-.3-1.4-.8-3.4-1.1-4.5-1.8-5.8-2.2-12.7-2.2-40.5v-26-32-32.3c0-.9 0-10-.1-20.2V-.1l-49.9.1c-27.5.1-50.1.3-50.3.5z"/><path d="M362.2 78.7c.2 55.9.6 79.5 1.4 81.3.7 1.4 1.3 2.9 1.5 3.5.2.5 1 1.9 1.9 2.9 7.8 9.9 13.6 12.7 27.3 13.3 5.6.2 11 .5 12 .7.9.2 1.7-.1 1.7-.6 0-.7.5-.6 1.4.1.9.8 1.6.8 2 .2.4-.5 1.8-.6 3.4-.2 1.5.4 3.8.5 5.2.1 1.3-.3 4.6-.3 7.3 0 2.6.4 5 .3 5.3-.1.2-.4 1.7-.4 3.2 0 1.5.4 3.8.5 5.2.1 1.4-.4 3.5-.3 4.8.1 1.2.5 2.2.5 2.2-.1 0-.5 1.2-.5 2.9 0 1.5.4 3.3.5 3.9.1.5-.3 4.7-.4 9.1-.1 4.5.3 8.1.1 8.1-.4s.6-.3 1.4.3c.9.8 1.6.8 2 .2.4-.6 1.6-.7 2.9-.2 1.2.4 3.6.5 5.2.1 1.7-.3 5.1-.3 7.8 0 2.6.4 4.7.3 4.7-.1s1.3-.4 2.9.1c1.5.4 3.3.5 3.9.1.5-.3 4.7-.4 9.1-.1 4.5.3 8.1.1 8.1-.4s.6-.3 1.4.3c.9.8 1.6.8 2 .2.4-.6 1.6-.7 2.9-.2 1.2.4 3.6.5 5.2.1 1.7-.3 5.1-.3 7.8 0 2.6.4 4.7.3 4.7-.1s1.3-.4 2.9.1c1.5.4 3.3.5 3.9.1.5-.3 4.7-.4 9.1-.1 4.5.3 8.1.1 8.1-.4s.6-.3 1.4.3c.9.8 1.6.8 2 .2.4-.6 1.6-.7 2.9-.2 1.2.4 3.6.5 5.2.1 1.7-.3 5.1-.3 7.8 0 2.6.4 4.7.3 4.7-.1s1.3-.4 2.9.1c1.5.4 3.3.5 3.9.1.5-.3 4.7-.4 9.1-.1 4.5.3 8.1.1 8.1-.4s.6-.3 1.4.3c.9.8 1.6.8 2 .2.4-.6 1.8-.6 3.5-.1 1.6.4 3.2.6 3.4.4.3-.3 3.1-.6 6.3-.8 11.9-.5 21.3-6.6 26.5-17.2l2.4-4.9.3-78.8.3-78.7H361.9l.3 78.7zM496.3 423.5c-10.1 1.8-16.5 4.1-26.1 9.1-10.2 5.3-12.4 7-21.7 16.1-7.3 7.3-17.5 21.4-17.5 24.3 0 .9-.5 2.1-1.1 2.7-.6.6-1.2 1.7-1.3 2.4-.2.8-.9 2.7-1.6 4.4-3 7.2-4.8 19.9-4.4 31.5.2 6.3.6 12.6.8 14 .8 4.5 3.5 13.9 5 17.5.9 2 1.6 3.9 1.6 4.3.1.4.7 1.4 1.4 2.2.7.8 1.8 3 2.6 4.7.7 1.8 1.6 3.3 2.1 3.3s.9.6.9 1.2c0 1.7 3.2 5.7 11 13.6 7.4 7.5 8.8 8.7 14.5 12.2 2.2 1.3 4.2 2.7 4.5 3 1.2 1.5 16.3 7.4 23.5 9.3 8 2.1 27.6 2.9 36.5 1.5 9.7-1.5 31.6-10.2 32.8-13 .2-.5.8-.8 1.4-.8 1.5 0 9.1-6.2 15.3-12.5 9.1-9.1 20.5-28.9 22.1-38.4.3-1.4.7-3.3 1-4.1 1.8-4.9 2.4-24.1 1.2-34.6-1.5-11.6-9.2-29.6-17.2-39.9-4-5.1-12.1-13.2-17.1-17.1-3.7-2.8-16.4-10.6-17.5-10.7-.3 0-2-.6-3.7-1.4-3.5-1.4-12.9-4-17.8-4.9-6.4-1.2-24.3-1.1-31.2.1z"/><path d="M126.2 541.8l-4.2.3.3 203.2c.1 111.8.6 204.2 1 205.5.4 1.2.9 3.1 1.2 4.3.8 4 1.7 6.5 5.3 14.9 1.9 4.7 3.9 8.7 4.4 8.8.4.2.8.8.8 1.3 0 1.9 6.5 10.3 13.5 17.3 6.7 6.8 12 10.8 19.6 15 7.3 4 18.7 8.5 22.8 8.9 1.5.2 3.3.7 4.1 1.3.9.5 23.8 1 54.3 1.2l52.8.4v-11.9V999v-32-32c.1-.8 0-14.8 0-31-.1-16.2-.1-29.7-.1-30 .1-.3.3-3.2.5-6.5.9-15.9 6-30.5 15.5-44.5 7.7-11.3 21.5-23.2 34.7-29.9 6.2-3.1 19.1-7.1 24.8-7.8 2.8-.3 5.7-.9 6.6-1.3.8-.5 2-.6 2.6-.2.6.4 4.5.5 8.7.2 4.2-.3 7.6-.3 7.6 0s4.2.4 9.2.2c5.1-.1 14.7-.2 21.3-.1 6.6 0 12.9 0 14-.1 1.1-.1 2.5-.1 3-.1 10.1.1 25.7 0 35.8-.2 7-.1 12.7 0 12.7.3s24 .4 53.3.2c29.2-.1 56.8-.2 61.2-.1 4.4 0 9.1 0 10.5-.1 7.9-.6 22.9.9 31.5 3.1 4.2 1.1 20.7 7.8 21.5 8.8.3.4 2.4 1.9 4.8 3.4 20.1 13 34.6 35.3 38.9 59.7 1.2 6.9 1.3 15.9 1.2 94.5v36.3l.1 34.3 51.7-.4c28.5-.2 52.9-.6 54.3-1 1.4-.4 3.9-1 5.5-1.4 3.8-.9 3.6-.8 6-1.7 1.1-.5 3.8-1.5 6-2.3 4.8-1.8 15.8-7.7 19.8-10.6 5.4-4.1 17.5-16.7 20.6-21.4 1.7-2.7 3.5-5.3 4.1-6 .5-.7 1-1.7 1-2.4 0-.6.8-2.3 1.8-3.7 1.7-2.6 5.4-12.7 6.7-18.7.4-1.7 1-3.9 1.3-5 .4-1.1.8-93.2.9-204.8L902 542l-29.7-.1c-16.4-.1-30.2 0-30.8.1-.5.1-5.7.1-11.5 0s-11.2-.2-12-.2c-.8.1-17 .1-36 0-19 0-35.2 0-36 .1h-12c-5.8-.1-11.2-.1-12-.1-.8.1-15.3.1-32.1.1l-30.7.1-.7 2.2c-.4 1.3-.7 2.6-.6 3 0 .3-.8 3.2-1.9 6.2-1 3.1-1.7 5.6-1.5 5.6.3 0-2.2 5.8-8.6 20.5-.5 1.1-2.2 4.2-3.9 7-1.7 2.7-3.8 6.5-4.7 8.2-.9 1.8-2 3.3-2.4 3.3-.4 0-1.7 1.5-2.8 3.3-7.6 12.3-29.1 31.4-46.6 41.3-7.7 4.3-22.4 10.8-26.3 11.5-.4.1-2.3.7-4.2 1.4-1.9.8-6.2 1.9-9.5 2.6-3.3.7-6.7 1.4-7.5 1.6-7.9 1.7-36.6 2.3-45 .9-6.9-1.1-8.1-1.3-13.3-2.1-2.6-.4-5-1.1-5.3-1.6-.3-.5-.9-.7-1.4-.4-.5.3-1.8.1-2.8-.4-1.1-.6-3-1.2-4.4-1.5-1.4-.2-4.6-1.4-7.1-2.5-2.5-1.2-4.9-2.1-5.3-2.1-2.6 0-23-11.9-31.9-18.5-7-5.3-23.5-20.9-23.5-22.3 0-.4-1.8-2.6-4-5s-4-4.7-4-5.2-.6-1.5-1.3-2.2c-1.7-1.8-4.9-6.7-6.9-10.8-1-1.9-2.6-4.9-3.6-6.5-1-1.7-2.4-4.7-3.1-6.8-.7-2-1.6-3.7-2-3.7-.4 0-.8-.6-.8-1.3 0-.6-1.1-4.8-2.6-9.2-1.4-4.4-3.1-9.9-3.8-12.3l-1.2-4.2-5.1-.1c-2.8-.1-5.5 0-6.1.1-.5.2-2.1.2-3.5.1-1.4-.2-3.2-.2-4-.2h-28c-3 .1-10.2 0-16 0-5.8-.1-11.2-.1-12 0-.8.1-2.6.1-4 0h-32c-3 .1-10.2 0-16 0-5.8-.1-11.2-.1-12 0-.8.1-2.6.1-4 0h-32c-3 .1-10.2 0-16 0-5.8-.1-11.2-.1-12 0-.8.1-2.6.1-4 0h-4c-3.9.1-22.4 0-22.9-.2-.3-.1-2.5-.1-4.9.1z"/><path d="M400 843.9c0 .3-3.5.6-7.8.7-5.6 0-9 .6-12.4 2.1-6.3 2.9-13.2 10.1-15.7 16.6-1.9 5-2 7.8-2 83l-.1 77.7h300l-.3-78.3c-.1-43-.5-79.1-.9-80.2-3.5-10.9-13.6-19.4-24.8-21-2.5-.4-4.6-.8-4.8-1-.2-.2-1.7.1-3.3.5-1.6.5-3.1.5-3.4 0-.2-.4-1.9-.5-3.7-.1-1.8.4-5.4.4-8 .1-2.7-.4-4.8-.3-4.8.1s-1.3.4-2.9-.1c-1.5-.4-3.3-.5-3.9-.1-.5.3-4.7.4-9.1.1-4.5-.3-8.1-.1-8.1.4s-.6.3-1.4-.3c-.9-.8-1.6-.8-2-.2-.4.6-1.6.7-2.9.2-1.2-.4-3.5-.5-5.2-.1-1.6.3-5.1.3-7.7 0-2.7-.4-4.8-.3-4.8.1s-1.3.4-2.9-.1c-1.5-.4-3.3-.5-3.9-.1-.5.3-4.7.4-9.1.1-4.5-.3-8.1-.1-8.1.4s-.6.3-1.4-.3c-.9-.8-1.6-.8-2-.2-.4.5-1.8.6-3.4.2-1.5-.4-3.8-.5-5.2-.1-1.3.3-4.6.3-7.2 0-2.7-.4-4.8-.3-4.8.1s-1.3.4-2.9-.1c-1.5-.4-3.3-.5-3.9-.1-.5.3-4.7.4-9.1.1-4.5-.3-8.1-.1-8.1.4s-.6.3-1.4-.3c-.9-.8-1.6-.8-2-.2-.4.5-1.8.6-3.4.2-1.5-.4-3.8-.5-5.2-.1-1.3.3-4.6.3-7.3 0-2.6-.4-5-.3-5.3.1-.2.4-1.7.4-3.2 0-1.5-.4-3.8-.5-5.2-.1-1.4.4-3.5.3-4.7-.1-1.3-.5-2.3-.5-2.3.1 0 .5-1.2.5-2.9 0-1.5-.4-3.3-.5-3.9-.1-.5.3-4.7.4-9.1.1-4.5-.3-8.1-.1-8.1.4s-.6.3-1.4-.3c-.8-.7-1.7-.8-2-.3-.3.5-2.6.6-5.1.2-2.5-.4-4.8-.4-5 0-.2.4-2.7.4-5.5 0-2.7-.4-5-.4-5-.1z"/></svg>