<svg xmlns="http://www.w3.org/2000/svg" viewBox="0 0 512 512"><style>.a{fill:#C8414B;}.b{fill:#FFD250;}.c{fill:#F5F5F5;}.d{fill:#FAB446;}.e{fill:#FFB441;}.f{fill:#5064AA;}</style><path d="M8.8 423.7h494.3c4.9 0 8.8-4 8.8-8.8V97.1c0-4.9-4-8.8-8.8-8.8H8.8C4 88.3 0 92.2 0 97.1v317.8C0 419.8 4 423.7 8.8 423.7z" class="a"/><rect y="158.9" width="512" height="194.2" class="b"/><path d="M216.3 256l7.5-33.7c0.7-3.1-1.7-6-4.8-6h-5.3c-3.2 0-5.5 2.9-4.8 6L216.3 256z" class="a"/><rect x="207.5" y="238.3" width="17.7" height="75" class="c"/><rect x="203" y="229.5" width="26.5" height="8.8" class="d"/><rect x="185.4" y="256" width="44.1" height="8.8" class="a"/><polygon points="229.5 291.3 203 282.5 203 273.7 229.5 282.5 " class="a"/><path d="M83.9 256l7.5-33.7c0.7-3.1-1.7-6-4.8-6h-5.3c-3.2 0-5.5 2.9-4.8 6L83.9 256z" class="a"/><path d="M114.8 229.5c-4.9 0-8.8 4-8.8 8.8v57.4c0 10.7 10 30.9 44.1 30.9s44.1-20.2 44.1-30.9v-57.4c0-4.9-4-8.8-8.8-8.8H114.8z" class="c"/><path d="M150.1 273.7h-44.1v-35.3c0-4.9 4-8.8 8.8-8.8h35.3V273.7z" class="a"/><path d="M150.1 273.7h44.1v22.1c0 12.2-9.9 22.1-22.1 22.1l0 0c-12.2 0-22.1-9.9-22.1-22.1V273.7z" class="a"/><path d="M105.9 273.7h44.1v22.1c0 12.2-9.9 22.1-22.1 22.1l0 0c-12.2 0-22.1-9.9-22.1-22.1V273.7z" class="d"/><path d="M141.2 313.3v-39.6h-8.8v43.7C135.7 316.7 138.7 315.2 141.2 313.3z" class="a"/><path d="M123.6 317.3v-43.7h-8.8v39.6C117.3 315.2 120.3 316.7 123.6 317.3z" class="a"/><rect x="114.8" y="256" width="26.5" height="8.8" class="e"/><rect x="114.8" y="238.3" width="26.5" height="8.8" class="d"/><rect x="119.2" y="243.6" width="17.7" height="16" class="d"/><rect x="75" y="238.3" width="17.7" height="75" class="c"/><rect x="70.6" y="309" width="26.5" height="8.8" class="d"/><rect x="70.6" y="229.5" width="26.5" height="8.8" class="d"/><rect x="66.2" y="317.8" width="35.3" height="8.8" class="f"/><rect x="207.5" y="309" width="26.5" height="8.8" class="d"/><rect x="198.6" y="317.8" width="35.3" height="8.8" class="f"/><rect x="123.6" y="220.7" width="53" height="8.8" class="d"/><rect x="145.7" y="194.2" width="8.8" height="26.5" class="e"/><path d="M141.2 207.4c-7.3 0-13.2-5.9-13.2-13.2 0-7.3 5.9-13.2 13.2-13.2 7.3 0 13.2 5.9 13.2 13.2C154.5 201.5 148.5 207.4 141.2 207.4zM141.2 189.8c-2.4 0-4.4 2-4.4 4.4 0 2.4 2 4.4 4.4 4.4s4.4-2 4.4-4.4C145.7 191.8 143.7 189.8 141.2 189.8z" class="c"/><path d="M158.9 207.4c-7.3 0-13.2-5.9-13.2-13.2 0-7.3 5.9-13.2 13.2-13.2 7.3 0 13.2 5.9 13.2 13.2S166.2 207.4 158.9 207.4zM158.9 189.8c-2.4 0-4.4 2-4.4 4.4 0 2.4 2 4.4 4.4 4.4 2.4 0 4.4-2 4.4-4.4C163.3 191.8 161.3 189.8 158.9 189.8z" class="c"/><path d="M176.6 216.3c-7.3 0-13.2-5.9-13.2-13.2 0-7.3 5.9-13.2 13.2-13.2 7.3 0 13.2 5.9 13.2 13.2S183.9 216.3 176.6 216.3zM176.6 198.6c-2.4 0-4.4 2-4.4 4.4 0 2.4 2 4.4 4.4 4.4 2.4 0 4.4-2 4.4-4.4S179 198.6 176.6 198.6z" class="c"/><path d="M123.6 216.3c-7.3 0-13.2-5.9-13.2-13.2 0-7.3 5.9-13.2 13.2-13.2 7.3 0 13.2 5.9 13.2 13.2C136.8 210.3 130.9 216.3 123.6 216.3zM123.6 198.6c-2.4 0-4.4 2-4.4 4.4 0 2.4 2 4.4 4.4 4.4s4.4-2 4.4-4.4C128 200.6 126 198.6 123.6 198.6z" class="c"/><path d="M176.6 291.3v4.4c0 2.4-2 4.4-4.4 4.4s-4.4-2-4.4-4.4v-4.4H176.6M185.4 282.5h-26.5v13.2c0 7.3 5.9 13.2 13.2 13.2 7.3 0 13.2-5.9 13.2-13.2v-13.2H185.4z" class="d"/><path d="M172.1 264.8L172.1 264.8c-4.9 0-8.8-4-8.8-8.8v-8.8c0-4.9 4-8.8 8.8-8.8l0 0c4.9 0 8.8 4 8.8 8.8v8.8C181 260.9 177 264.8 172.1 264.8z" fill="#FFA0D2"/><circle cx="150.1" cy="273.7" r="13.2" class="f"/><rect x="145.7" y="176.6" width="8.8" height="26.5" class="d"/><path d="M123.6 220.7l-8.8-8.8 5.2-5.2c8-8 18.8-12.5 30.1-12.5l0 0c11.3 0 22.1 4.5 30.1 12.5l5.2 5.2 -8.8 8.8H123.6z" class="a"/><circle cx="150.1" cy="211.9" r="4.4" class="b"/><circle cx="132.4" cy="211.9" r="4.4" class="b"/><circle cx="167.7" cy="211.9" r="4.4" class="b"/><rect x="70.6" y="256" width="44.1" height="8.8" class="a"/><polygon points="70.6 291.3 97.1 282.5 97.1 273.7 70.6 282.5 " class="a"/></svg>