<?xml version="1.0" standalone="no"?>
<!DOCTYPE svg PUBLIC "-//W3C//DTD SVG 20010904//EN"
 "http://www.w3.org/TR/2001/REC-SVG-20010904/DTD/svg10.dtd">
<svg version="1.0" xmlns="http://www.w3.org/2000/svg"
 width="508.000000pt" height="508.000000pt" viewBox="0 0 508.000000 508.000000"
 preserveAspectRatio="xMidYMid meet">
<metadata>
Created by potrace 1.11, written by Peter Selinger 2001-2013
</metadata>
<g transform="translate(0.000000,508.000000) scale(0.100000,-0.100000)"
fill="#000000" stroke="none">
<path d="M2699 4966 c-2 -2 -35 -7 -74 -11 -311 -30 -634 -154 -920 -352 -102
-71 -124 -89 -253 -216 -167 -164 -290 -334 -388 -534 -60 -123 -134 -320
-134 -356 0 -15 -115 -136 -385 -407 l-385 -386 54 -53 c49 -49 57 -53 73 -40
9 8 142 139 295 292 153 152 280 277 284 277 3 0 3 -17 -1 -37 -3 -21 -6 -97
-6 -169 l-1 -131 -429 -429 -429 -429 52 -52 c29 -29 56 -53 60 -53 4 0 180
172 390 382 l383 382 6 -39 c13 -72 17 -89 37 -161 l20 -71 -474 -474 -474
-474 52 -52 c29 -29 56 -53 60 -53 5 0 206 198 448 440 242 242 442 440 445
440 3 0 26 -44 52 -97 25 -54 56 -114 69 -134 l22 -36 -574 -574 -574 -574 52
-52 c29 -29 56 -53 60 -53 5 0 258 250 563 555 305 305 559 555 564 555 5 0
16 -11 24 -24 9 -13 40 -52 71 -88 l54 -65 -694 -694 -694 -694 52 -52 c29
-29 56 -53 60 -53 4 0 319 311 698 690 l691 691 42 -36 c23 -20 75 -61 115
-92 l73 -57 -545 -545 -546 -546 53 -53 c29 -28 56 -52 60 -52 4 0 251 244
550 542 298 299 550 549 560 556 14 12 21 11 46 -7 16 -12 31 -21 34 -21 12 0
197 -92 197 -98 0 -4 -193 -200 -430 -437 l-430 -430 52 -52 c29 -29 56 -53
60 -53 5 0 208 200 453 445 l445 445 77 -34 c43 -19 107 -44 143 -57 36 -12
67 -24 70 -26 2 -2 -145 -153 -328 -336 l-332 -332 53 -53 c29 -28 56 -52 60
-52 4 0 171 164 372 365 313 313 369 364 388 360 39 -10 169 -27 257 -34 8 0
-81 -97 -198 -214 l-212 -212 53 -53 c29 -28 56 -52 60 -52 4 0 127 120 274
267 l267 267 90 12 c463 61 851 257 1160 583 34 36 68 72 78 82 35 37 129 169
180 254 146 243 227 482 267 790 9 71 7 380 -3 445 -3 19 -8 53 -11 75 -16
100 -69 292 -113 400 -21 53 -95 206 -115 239 -117 192 -180 274 -313 410 -16
17 -61 69 -98 116 -296 370 -741 635 -1195 715 -47 8 -102 17 -121 21 -39 6
-395 15 -401 10z m381 -170 l75 -11 -94 -63 c-52 -34 -104 -62 -115 -63 -12 0
-30 -2 -41 -5 -113 -23 -118 -22 -230 52 -57 38 -105 72 -105 75 0 24 376 35
510 15z m568 -166 c45 -22 82 -41 82 -44 0 -2 -39 6 -86 19 -98 28 -118 31
-234 46 -74 9 -124 15 -140 18 -2 1 20 16 50 35 l54 34 96 -34 c52 -19 132
-52 178 -74z m-1188 29 c58 -40 106 -73 108 -74 2 -2 -35 -16 -81 -33 -111
-40 -221 -93 -330 -159 -82 -49 -145 -91 -157 -103 -3 -3 -36 -30 -75 -62
-119 -96 -245 -228 -331 -348 -20 -28 -40 -48 -44 -43 -11 12 -110 280 -110
297 0 24 206 224 310 302 168 125 364 228 540 284 49 16 67 9 170 -61z m-1080
-834 c5 -11 22 -56 38 -100 29 -82 30 -81 -4 -138 -8 -15 -170 -64 -273 -84
-14 -2 -28 -6 -33 -9 -41 -26 94 299 183 441 l32 49 24 -69 c13 -39 28 -79 33
-90z m-55 -452 c-30 -74 -80 -298 -92 -413 -10 -95 -10 -365 0 -448 22 -184
78 -382 155 -557 33 -75 37 -91 24 -94 -20 -4 -47 29 -119 144 -109 174 -203
406 -239 590 -7 35 -32 219 -33 240 -3 85 -2 276 2 300 10 56 21 140 21 159 1
16 23 25 141 57 77 20 142 37 144 38 2 1 0 -7 -4 -16z"/>
</g>
</svg>
