<?xml version="1.0" encoding="UTF-8"?>
<svg width="508px" height="486px" viewBox="0 0 508 486" version="1.1" xmlns="http://www.w3.org/2000/svg" xmlns:xlink="http://www.w3.org/1999/xlink">
    <!-- Generator: Sketch 48.2 (47327) - http://www.bohemiancoding.com/sketch -->
    <title>Untitled</title>
    <desc>Created with Sketch.</desc>
    <defs></defs>
    <g id="Page-1" stroke="none" stroke-width="1" fill="none" fill-rule="evenodd">
        <circle id="Path" fill="#00E676" cx="315" cy="223" r="193"></circle>
        <path d="M285.656,0 C395.936,0 485.656,89.72 485.656,200 C485.656,284.416 433.056,356.736 358.936,386.032 L275.304,469.656 L263.992,458.344 L326.56,395.776 C314.424,398.312 301.872,399.696 289.048,399.912 L203.304,485.656 L191.992,474.344 L267.216,399.12 C255.224,398.016 243.544,395.84 232.256,392.704 L139.304,485.656 L127.992,474.344 L215.192,387.144 C205.432,383.456 196.04,379.008 187.064,373.904 L75.312,485.656 L64,474.344 L173.112,365.232 C164.984,359.68 157.296,353.536 150.088,346.88 L11.312,485.656 L0,474.344 L138.776,335.568 C133.416,329.76 128.408,323.624 123.752,317.216 L11.312,429.656 L0,418.344 L114.68,303.664 C109.36,294.928 104.728,285.736 100.776,276.192 L11.312,365.656 L0,354.344 L94.736,259.608 C91.992,250.856 89.88,241.832 88.36,232.608 L11.312,309.656 L0,298.344 L86.072,212.272 C85.824,208.208 85.656,204.128 85.656,200 C85.656,192.592 86.096,185.288 86.88,178.088 L27.312,237.656 L16,226.344 L91.872,150.472 C113.968,64.072 192.464,0 285.656,0 Z M427.848,83.36 C404.6,55.072 373.088,33.856 337.04,23.352 L293.656,52.28 L293.656,124 L350.496,166.632 L407.264,138.248 L427.848,83.36 Z M340.392,179.048 L285.656,138 L230.92,179.048 L251.608,248 L319.704,248 L340.392,179.048 Z M285.656,16 C275.48,16 265.504,16.864 255.776,18.464 L285.656,38.384 L315.536,18.464 C305.808,16.864 295.832,16 285.656,16 Z M234.272,23.352 C198.224,33.856 166.712,55.072 143.464,83.36 L164.048,138.248 L220.816,166.632 L277.656,124 L277.656,52.28 L234.272,23.352 Z M132.136,98.736 C122.216,113.728 114.44,130.248 109.224,147.864 L147.016,138.416 L132.136,98.736 Z M139.216,311.248 L193.592,304.448 L236.736,254.112 L214.984,181.608 L156.72,152.48 L104.96,165.424 C102.824,176.632 101.656,188.176 101.656,200 C101.656,241.776 115.672,280.32 139.216,311.248 Z M151.584,325.824 C166.128,341.312 183.304,354.272 202.416,364.008 L191.616,320.816 L151.584,325.824 Z M350.432,371.912 L364.896,314.072 L321.976,264 L249.336,264 L206.424,314.064 L220.96,372.224 C241.096,379.816 262.896,384 285.656,384 C308.272,384 329.936,379.872 349.968,372.376 L350.432,371.912 Z M368.904,364.008 C388.008,354.272 405.184,341.312 419.736,325.824 L379.704,320.816 L368.904,364.008 Z M377.72,304.44 L432.096,311.24 C455.64,280.32 469.656,241.776 469.656,200 C469.656,188.176 468.488,176.632 466.352,165.416 L414.592,152.472 L356.328,181.6 L334.576,254.104 L377.72,304.44 Z M462.088,147.864 C456.872,130.248 449.096,113.728 439.176,98.736 L424.296,138.416 L462.088,147.864 Z" id="Combined-Shape" fill="#363636"></path>
    </g>
</svg>