<?xml version="1.0" encoding="UTF-8"?>
<svg width="512px" height="512px" viewBox="0 0 512 512" version="1.1" xmlns="http://www.w3.org/2000/svg" xmlns:xlink="http://www.w3.org/1999/xlink">
    <!-- Generator: Sketch 48.2 (47327) - http://www.bohemiancoding.com/sketch -->
    <title>Untitled 2</title>
    <desc>Created with Sketch.</desc>
    <defs></defs>
    <g id="Page-1" stroke="none" stroke-width="1" fill="none" fill-rule="evenodd">
        <path d="M174.118535,219.461845 L246.4,166.971464 L246.4,76.8 L174.933,24.533 C131.2,40.533 92.8,68.266 64,104.533 L91.733,192 L174.118535,219.461845 Z M263.467,165.422492 L339.559317,220.680291 L422.4,193.067 L448,104.534 C419.2,68.267 379.733,39.467 334.933,24.534 L263.467,76.8 L263.467,165.422492 Z M341.478445,237.818185 L315.231117,319.021648 L369.067,390.4 L462.934,390.4 C487.467,353.067 502.401,308.267 503.467,260.267 L430.933,208 L341.478445,237.818185 Z M302.78845,330.667 L211.34555,330.667 L160,398.933 L189.867,490.666 C211.2,497.066 233.6,500.266 257.067,500.266 C280.534,500.266 302.934,497.066 324.267,490.666 L354.134,398.933 L302.78845,330.667 Z M197.408963,321.001915 L169.851063,235.743831 L84.267,206.933 L10.667,260.266 C11.734,308.266 25.6,353.066 51.2,390.399 L145.067,390.399 L197.408963,321.001915 Z M256,512 C114.615104,512 0,397.384896 0,256 C0,114.615104 114.615104,0 256,0 C397.384896,0 512,114.615104 512,256 C512,397.384896 397.384896,512 256,512 Z" id="Combined-Shape" fill="#FFFFFF" fill-rule="nonzero"></path>
    </g>
</svg>