<?xml version="1.0" encoding="UTF-8"?>
<svg width="486px" height="486px" viewBox="0 0 486 486" version="1.1" xmlns="http://www.w3.org/2000/svg" xmlns:xlink="http://www.w3.org/1999/xlink">
    <!-- Generator: Sketch 48.2 (47327) - http://www.bohemiancoding.com/sketch -->
    <title>Untitled</title>
    <desc>Created with Sketch.</desc>
    <defs></defs>
    <g id="Page-1" stroke="none" stroke-width="1" fill="none" fill-rule="evenodd">
        <path d="M285.656,0 C192.464,0 113.968,64.072 91.872,150.472 L16,226.344 L27.312,237.656 L86.88,178.088 C86.096,185.288 85.656,192.592 85.656,200 C85.656,204.128 85.824,208.208 86.072,212.272 L0,298.344 L11.312,309.656 L88.36,232.608 C89.88,241.832 91.992,250.856 94.736,259.608 L0,354.344 L11.312,365.656 L100.776,276.192 C104.728,285.736 109.36,294.928 114.68,303.664 L0,418.344 L11.312,429.656 L123.752,317.216 C128.408,323.624 133.416,329.76 138.776,335.568 L0,474.344 L11.312,485.656 L150.088,346.88 C157.296,353.536 164.984,359.68 173.112,365.232 L64,474.344 L75.312,485.656 L187.064,373.904 C196.04,379.008 205.432,383.456 215.192,387.144 L127.992,474.344 L139.304,485.656 L232.256,392.704 C243.544,395.84 255.224,398.016 267.216,399.12 L191.992,474.344 L203.304,485.656 L289.048,399.912 C301.872,399.696 314.424,398.312 326.56,395.776 L263.992,458.344 L275.304,469.656 L358.936,386.032 C433.056,356.736 485.656,284.416 485.656,200 C485.656,89.72 395.936,0 285.656,0 Z" id="Path" fill="#363636"></path>
        <path d="M427.848,83.36 L407.264,138.248 L350.496,166.632 L293.656,124 L293.656,52.28 L337.04,23.352 C373.088,33.856 404.6,55.072 427.848,83.36 Z M340.392,179.048 L319.704,248 L251.608,248 L230.92,179.048 L285.656,138 L340.392,179.048 Z M285.656,16 C295.832,16 305.808,16.864 315.536,18.464 L285.656,38.384 L255.776,18.464 C265.504,16.864 275.48,16 285.656,16 Z M234.272,23.352 L277.656,52.28 L277.656,124 L220.816,166.632 L164.048,138.248 L143.464,83.36 C166.712,55.072 198.224,33.856 234.272,23.352 Z M132.136,98.736 L147.016,138.416 L109.224,147.864 C114.44,130.248 122.216,113.728 132.136,98.736 Z M139.216,311.248 C115.672,280.32 101.656,241.776 101.656,200 C101.656,188.176 102.824,176.632 104.96,165.424 L156.72,152.48 L214.984,181.608 L236.736,254.112 L193.592,304.448 L139.216,311.248 Z M151.584,325.824 L191.616,320.816 L202.416,364.008 C183.304,354.272 166.128,341.312 151.584,325.824 Z M350.432,371.912 L349.968,372.376 C329.936,379.872 308.272,384 285.656,384 C262.896,384 241.096,379.816 220.96,372.224 L206.424,314.064 L249.336,264 L321.976,264 L364.896,314.072 L350.432,371.912 Z M368.904,364.008 L379.704,320.816 L419.736,325.824 C405.184,341.312 388.008,354.272 368.904,364.008 Z M377.72,304.44 L334.576,254.104 L356.328,181.6 L414.592,152.472 L466.352,165.416 C468.488,176.632 469.656,188.176 469.656,200 C469.656,241.776 455.64,280.32 432.096,311.24 L377.72,304.44 Z M462.088,147.864 L424.296,138.416 L439.176,98.736 C449.096,113.728 456.872,130.248 462.088,147.864 Z" id="Path" fill="#FFFFFF"></path>
    </g>
</svg>