<?xml version="1.0" encoding="UTF-8"?>
<svg width="513px" height="512px" viewBox="0 0 513 512" version="1.1" xmlns="http://www.w3.org/2000/svg" xmlns:xlink="http://www.w3.org/1999/xlink">
    <!-- Generator: Sketch 48.2 (47327) - http://www.bohemiancoding.com/sketch -->
    <title>Untitled</title>
    <desc>Created with Sketch.</desc>
    <defs></defs>
    <g id="Page-1" stroke="none" stroke-width="1" fill="none" fill-rule="evenodd">
        <g id="football-(1)" fill="#FFFFFF" fill-rule="nonzero">
            <path d="M104.202,109.226 C100.055,105.581 93.737,105.987 90.091,110.135 C78.311,123.536 68.17,138.361 59.949,154.197 C57.405,159.099 59.316,165.135 64.217,167.679 C65.69,168.443 67.264,168.805 68.815,168.805 C72.429,168.805 75.918,166.84 77.698,163.411 C85.174,149.009 94.398,135.526 105.112,123.338 C108.756,119.189 108.349,112.872 104.202,109.226 Z" id="Shape"></path>
            <path d="M61.094,174.696 C55.906,172.842 50.175,175.578 48.305,180.763 C48.299,180.779 48.261,180.885 48.255,180.901 C46.412,186.095 49.136,191.758 54.326,193.614 C55.429,194.009 56.557,194.196 57.667,194.196 C61.777,194.196 65.643,191.63 67.116,187.547 C67.122,187.531 67.16,187.425 67.166,187.409 C69.008,182.215 66.285,176.552 61.094,174.696 Z" id="Shape"></path>
            <path d="M280.34,465.691 C279.963,460.182 275.192,456.01 269.683,456.397 C253.493,457.501 237.182,456.637 221.2,453.826 C215.764,452.871 210.577,456.503 209.62,461.941 C208.663,467.38 212.297,472.565 217.735,473.521 C230.37,475.744 243.191,476.86 256.017,476.86 C261.028,476.86 266.043,476.69 271.044,476.348 C276.555,475.972 280.716,471.2 280.34,465.691 Z" id="Shape"></path>
            <path d="M307.702,460.745 C306.646,455.325 301.396,451.787 295.973,452.847 L295.638,452.915 C290.235,454.055 286.779,459.359 287.918,464.763 C288.911,469.47 293.064,472.7 297.691,472.7 C298.375,472.7 299.069,472.629 299.765,472.483 L299.806,472.475 C305.225,471.416 308.761,466.165 307.702,460.745 Z" id="Shape"></path>
            <path d="M501.404,183.552 C501.255,183.045 501.104,182.538 500.951,182.032 C500.635,180.99 500.317,179.947 499.988,178.907 C499.616,177.728 499.232,176.554 498.843,175.382 C498.693,174.93 498.555,174.476 498.402,174.024 C498.326,173.798 498.242,173.576 498.165,173.351 C497.631,171.782 497.08,170.22 496.516,168.664 C496.318,168.118 496.116,167.574 495.914,167.029 C495.418,165.688 494.911,164.353 494.393,163.022 C494.204,162.535 494.018,162.046 493.826,161.561 C493.156,159.869 492.471,158.184 491.766,156.509 C491.526,155.937 491.276,155.371 491.032,154.801 C490.567,153.719 490.098,152.64 489.62,151.566 C489.24,150.713 488.856,149.863 488.468,149.016 C488.155,148.334 487.837,147.655 487.518,146.976 C463.036,94.727 421.919,52.586 369.437,26.629 C336.564,10.372 301.604,1.523 265.395,0.239 C265.391,0.239 265.387,0.239 265.382,0.239 C264.052,0.192 262.719,0.157 261.386,0.131 C260.691,0.117 259.995,0.11 259.299,0.102 C258.261,0.089 257.225,0.058 256.184,0.058 C209.167,0.058 163.043,12.996 122.801,37.474 C107.285,46.912 92.91,57.923 79.865,70.301 C79.814,70.348 79.758,70.389 79.708,70.437 C78.696,71.398 77.701,72.375 76.706,73.352 C76.683,73.374 76.66,73.396 76.638,73.418 C75.655,74.384 74.682,75.36 73.716,76.341 C73.58,76.48 73.443,76.617 73.307,76.756 C62.846,87.423 53.37,98.96 44.942,111.285 C44.94,111.288 44.937,111.292 44.935,111.296 C44.111,112.5 43.297,113.713 42.493,114.932 C42.419,115.044 42.347,115.157 42.273,115.269 C40.106,118.568 38.015,121.921 35.997,125.328 C35.702,125.826 35.403,126.322 35.11,126.823 C34.655,127.602 34.209,128.387 33.762,129.172 C33.332,129.925 32.905,130.68 32.483,131.438 C32.101,132.125 31.722,132.813 31.346,133.503 C30.84,134.432 30.342,135.366 29.847,136.302 C29.549,136.866 29.248,137.427 28.954,137.993 C28.199,139.447 27.454,140.908 26.725,142.378 C26.693,142.441 26.66,142.504 26.629,142.567 C26.591,142.645 26.556,142.723 26.518,142.801 C25.543,144.777 24.597,146.763 23.675,148.754 C23.449,149.243 23.235,149.737 23.012,150.228 C22.262,151.875 21.526,153.525 20.813,155.182 C20.635,155.597 20.464,156.013 20.289,156.429 C19.522,158.238 18.775,160.052 18.052,161.871 C17.959,162.106 17.867,162.341 17.775,162.576 C-3.125,215.605 -5.691,273.441 10.59,328.421 C10.745,328.947 10.901,329.472 11.059,329.996 C11.37,331.024 11.684,332.051 12.009,333.077 C12.393,334.296 12.79,335.509 13.192,336.721 C13.331,337.139 13.459,337.56 13.6,337.978 C13.666,338.174 13.739,338.367 13.806,338.562 C14.353,340.171 14.918,341.772 15.496,343.366 C15.686,343.888 15.878,344.408 16.071,344.929 C16.579,346.303 17.098,347.672 17.629,349.034 C17.808,349.494 17.983,349.955 18.165,350.413 C18.841,352.122 19.533,353.824 20.245,355.515 C20.469,356.049 20.703,356.578 20.932,357.11 C21.413,358.232 21.9,359.352 22.397,360.467 C22.766,361.296 23.14,362.122 23.517,362.946 C23.846,363.664 24.182,364.379 24.517,365.093 C49.001,417.309 90.105,459.425 142.563,485.37 C176.669,502.238 213.021,511.129 250.686,511.87 C251.294,511.882 251.903,511.888 252.512,511.896 C253.613,511.91 254.711,511.943 255.815,511.943 C302.832,511.943 348.956,499.005 389.198,474.526 C404.716,465.087 419.092,454.075 432.14,441.694 C432.189,441.649 432.243,441.609 432.292,441.562 C433.274,440.629 434.239,439.681 435.205,438.733 C435.263,438.677 435.321,438.622 435.378,438.565 C436.347,437.613 437.305,436.651 438.258,435.684 C438.409,435.531 438.56,435.378 438.71,435.225 C450.202,423.514 460.499,410.752 469.526,397.05 C469.585,396.961 469.642,396.871 469.701,396.782 C471.894,393.443 474.011,390.05 476.052,386.601 C476.329,386.133 476.611,385.667 476.885,385.197 C477.348,384.403 477.803,383.604 478.259,382.804 C478.679,382.066 479.098,381.326 479.512,380.583 C479.899,379.887 480.283,379.189 480.665,378.489 C481.165,377.571 481.658,376.648 482.147,375.723 C482.45,375.151 482.755,374.58 483.054,374.006 C483.807,372.555 484.551,371.097 485.278,369.629 C485.31,369.565 485.343,369.502 485.375,369.438 C485.413,369.362 485.447,369.284 485.485,369.208 C486.462,367.229 487.409,365.241 488.332,363.245 C488.553,362.766 488.763,362.283 488.981,361.803 C489.736,360.144 490.478,358.481 491.196,356.812 C491.369,356.408 491.536,356.001 491.708,355.595 C492.48,353.776 493.23,351.951 493.958,350.122 C494.048,349.895 494.137,349.666 494.227,349.438 C515.129,296.394 517.694,238.543 501.404,183.552 Z M467.606,151.702 C467.672,151.836 467.739,151.968 467.805,152.102 C468.257,153.027 468.699,153.957 469.14,154.888 C469.461,155.568 469.778,156.25 470.093,156.933 C470.435,157.674 470.779,158.414 471.114,159.16 C471.739,160.554 472.351,161.957 472.951,163.366 C473.176,163.895 473.395,164.427 473.616,164.957 C474.104,166.13 474.585,167.307 475.056,168.49 C475.229,168.926 475.406,169.361 475.577,169.797 C476.184,171.349 476.776,172.908 477.352,174.476 C477.515,174.918 477.671,175.364 477.831,175.807 C478.254,176.978 478.667,178.155 479.072,179.335 C479.279,179.94 479.489,180.544 479.691,181.15 C480.097,182.362 480.488,183.577 480.874,184.793 C481.258,186.009 481.632,187.229 481.998,188.453 C482.12,188.857 482.241,189.262 482.36,189.667 C483.076,192.111 483.757,194.568 484.396,197.042 L456.126,246.007 L364.722,246.005 L319.021,166.848 L364.723,87.689 L421.362,87.69 C440.368,106.351 455.949,127.981 467.606,151.702 Z M347.403,256.001 L301.701,335.159 L210.298,335.159 L164.597,256 L210.298,176.844 L301.702,176.844 L347.403,256.001 Z M360.572,44.556 C373.934,51.165 386.487,58.924 398.149,67.689 L364.719,67.688 L348.036,38.793 C352.25,40.586 356.429,42.507 360.572,44.556 Z M192.861,28.733 C213.524,22.985 234.811,20.073 256.196,20.073 C257.162,20.073 258.127,20.086 259.092,20.097 C259.639,20.104 260.187,20.11 260.735,20.12 C280.485,20.502 300.081,23.373 319.107,28.677 L347.404,77.688 L301.702,156.845 L210.299,156.844 L164.597,77.688 L192.861,28.733 Z M164.135,38.491 L147.278,67.688 L113.546,67.688 C129.104,55.889 146.088,46.078 164.135,38.491 Z M29.355,190.525 C29.454,190.185 29.561,189.848 29.661,189.508 C30.108,187.99 30.563,186.472 31.042,184.96 C31.342,184.014 31.662,183.074 31.974,182.131 C32.278,181.211 32.573,180.289 32.889,179.37 C33.439,177.775 34.013,176.187 34.597,174.604 C34.701,174.324 34.795,174.041 34.9,173.761 C37.733,166.166 40.956,158.707 44.557,151.429 C45.251,150.026 45.96,148.633 46.679,147.248 C46.872,146.877 47.07,146.51 47.264,146.14 C47.804,145.113 48.348,144.089 48.902,143.071 C49.119,142.672 49.339,142.275 49.559,141.877 C50.127,140.847 50.701,139.821 51.284,138.801 C51.465,138.483 51.647,138.165 51.829,137.848 C52.544,136.609 53.267,135.376 54.004,134.152 C54.046,134.081 54.088,134.009 54.131,133.939 C64.339,117.006 76.564,101.513 90.64,87.687 L147.282,87.687 L192.982,166.845 L147.281,246.001 L55.877,246 L27.591,197.008 C28.147,194.843 28.73,192.681 29.355,190.525 Z M21.955,284.754 C19.593,265.774 19.522,246.423 21.884,227.124 L38.556,256 L21.955,284.754 Z M27.679,314.838 L55.877,265.999 L147.281,266 L192.982,345.157 L147.278,424.314 L90.723,424.313 C59.837,393.941 38.286,355.883 27.679,314.838 Z M151.426,467.445 C137.99,460.8 125.475,453.025 113.919,444.312 L147.279,444.312 L163.962,473.208 C159.749,471.414 155.57,469.494 151.426,467.445 Z M319.139,483.268 C298.475,489.017 277.188,491.929 255.802,491.929 C254.809,491.929 253.816,491.916 252.823,491.904 C252.317,491.898 251.81,491.892 251.304,491.883 C231.541,491.504 211.931,488.634 192.892,483.325 L164.595,434.313 L210.296,355.157 L301.7,355.157 L347.402,434.314 L319.139,483.268 Z M347.864,473.51 L364.722,444.312 L398.454,444.312 C382.896,456.111 365.912,465.923 347.864,473.51 Z M470.277,354.626 C470.203,354.785 470.135,354.946 470.061,355.105 C469.212,356.938 468.34,358.76 467.444,360.571 C466.753,361.968 466.049,363.352 465.334,364.727 C465.122,365.137 464.903,365.542 464.689,365.95 C464.17,366.936 463.647,367.92 463.116,368.897 C462.884,369.324 462.649,369.748 462.414,370.173 C461.862,371.173 461.305,372.169 460.74,373.159 C460.545,373.502 460.349,373.844 460.152,374.185 C459.459,375.387 458.756,376.583 458.043,377.771 C457.98,377.877 457.916,377.985 457.852,378.091 C447.648,395.011 435.43,410.495 421.362,424.313 L364.72,424.313 L319.019,345.155 L364.721,265.999 L456.124,266 L484.425,315.019 C480.91,328.569 476.161,341.848 470.277,354.626 Z M490.203,285.032 L473.442,256.001 L490.167,227.032 C492.599,246.364 492.601,265.82 490.203,285.032 Z" id="Shape"></path>
        </g>
    </g>
</svg>