<?xml version="1.0" encoding="UTF-8"?>
<svg width="390px" height="512px" viewBox="0 0 390 512" version="1.1" xmlns="http://www.w3.org/2000/svg" xmlns:xlink="http://www.w3.org/1999/xlink">
    <!-- Generator: Sketch 48.2 (47327) - http://www.bohemiancoding.com/sketch -->
    <title>Untitled</title>
    <desc>Created with Sketch.</desc>
    <defs></defs>
    <g id="Page-1" stroke="none" stroke-width="1" fill="none" fill-rule="evenodd">
        <g id="logo" fill="#00C853" fill-rule="nonzero">
            <path d="M180,182.502374 C145.779721,189.457563 120,219.736493 120,256 C120,292.263507 145.779721,322.542437 180,329.497626 L180,451 L-16,451 C-40.901,451 -61,430.899 -61,406 L-61,361 L14,361 C38.814,361 59,340.814 59,316 L59,196 C59,171.186 38.814,151 14,151 L-61,151 L-61,106 C-61,81.099 -40.901,61 -16,61 L180,61 L180,182.502374 Z M210,182.502374 L210,61 L406,61 C430.901,61 451,81.099 451,106 L451,151 L376,151 C351.186,151 331,171.186 331,196 L331,316 C331,340.814 351.186,361 376,361 L451,361 L451,406 C451,430.899 430.901,451 406,451 L210,451 L210,329.497626 C244.220279,322.542437 270,292.263507 270,256 C270,219.736493 244.220279,189.457563 210,182.502374 Z M451,331 L376,331 C367.724,331 361,324.276 361,316 L361,196 C361,187.724 367.724,181 376,181 L451,181 L451,331 Z M-61,331 L-61,181 L14,181 C22.276,181 29,187.724 29,196 L29,316 C29,324.276 22.276,331 14,331 L-61,331 Z M195,301 C170.099,301 150,280.899 150,256 C150,231.099 170.099,211 195,211 C219.901,211 240,231.099 240,256 C240,280.899 219.901,301 195,301 Z" id="Combined-Shape" transform="translate(195.000000, 256.000000) rotate(90.000000) translate(-195.000000, -256.000000) "></path>
        </g>
    </g>
</svg>