<?xml version="1.0" encoding="UTF-8"?>
<svg width="492px" height="459px" viewBox="0 0 492 459" version="1.1" xmlns="http://www.w3.org/2000/svg" xmlns:xlink="http://www.w3.org/1999/xlink">
    <!-- Generator: Sketch 48.2 (47327) - http://www.bohemiancoding.com/sketch -->
    <title>Untitled</title>
    <desc>Created with Sketch.</desc>
    <defs></defs>
    <g id="Page-1" stroke="none" stroke-width="1" fill="none" fill-rule="evenodd">
        <g id="love" fill-rule="nonzero">
            <path d="M458.84,253.416 L268,458.264 L77.16,253.416 C32.968,205.976 32.968,128.784 77.16,81.344 C98.392,58.552 126.584,46 156.536,46 C186.488,46 214.68,58.552 235.912,81.344 L262.136,109.496 C265.168,112.744 270.816,112.744 273.848,109.496 L300.072,81.344 C321.32,58.552 349.504,46 379.464,46 C409.424,46 437.608,58.552 458.848,81.344 C503.04,128.792 503.04,205.976 458.84,253.416 Z" id="Path" fill="#FF3860"></path>
            <path d="M442.544,40.44 C418.248,14.36 385.904,0 351.464,0 C317.024,0 284.672,14.36 260.376,40.44 L240,62.312 L219.624,40.448 C195.328,14.36 162.984,0 128.536,0 C94.088,0 61.752,14.36 37.456,40.44 C-12.344,93.896 -12.344,180.872 37.456,234.32 L234.152,445.448 C235.664,447.08 237.784,448 240,448 C242.216,448 244.336,447.08 245.848,445.456 L442.544,234.328 C492.344,180.872 492.344,93.896 442.544,40.44 Z M430.84,223.416 L240,428.264 L49.16,223.416 C4.968,175.976 4.968,98.784 49.16,51.344 C70.392,28.552 98.584,16 128.536,16 C158.488,16 186.68,28.552 207.912,51.344 L234.136,79.496 C237.168,82.744 242.816,82.744 245.848,79.496 L272.072,51.344 C293.32,28.552 321.504,16 351.464,16 C381.424,16 409.608,28.552 430.848,51.344 C475.04,98.792 475.04,175.976 430.84,223.416 Z" id="Shape" fill="#363636"></path>
        </g>
    </g>
</svg>