<?xml version="1.0" encoding="UTF-8"?>
<svg width="496px" height="488px" viewBox="0 0 496 488" version="1.1" xmlns="http://www.w3.org/2000/svg" xmlns:xlink="http://www.w3.org/1999/xlink">
    <!-- Generator: Sketch 48.2 (47327) - http://www.bohemiancoding.com/sketch -->
    <title>Untitled 2</title>
    <desc>Created with Sketch.</desc>
    <defs></defs>
    <g id="Page-1" stroke="none" stroke-width="1" fill="none" fill-rule="evenodd">
        <path d="M151,131 L342,131 C346.418278,131 350,134.581722 350,139 L350,366 C350,370.418278 346.418278,374 342,374 L322.510863,374 C328.387455,318.386208 326.349992,290.579312 316.398476,290.579312 C296.158918,290.579312 283.248502,318.386208 277.667228,374 L151,374 C146.581722,374 143,370.418278 143,366 L143,139 C143,134.581722 146.581722,131 151,131 Z" id="Path" fill="#FF3860"></path>
        <path d="M328,119.905 L168,119.905 C150.352,119.905 136,134.257 136,151.905 L136,351.905 C136,366.769 146.232,379.193 160,382.769 L160,487.905 L176,487.905 L176,383.905 L280,383.905 C284.424,383.905 288,380.321 288,375.905 L288,327.905 C288,313.025 298.208,300.481 312,296.913 L312,487.905 L328,487.905 L328,383.905 C345.648,383.905 360,369.553 360,351.905 L360,151.905 C360,134.257 345.648,119.905 328,119.905 Z M344,351.905 C344,360.729 336.824,367.905 328,367.905 L328,287.905 C328,283.489 324.424,279.905 320,279.905 C293.528,279.905 272,301.433 272,327.905 L272,367.905 L168,367.905 C159.176,367.905 152,360.729 152,351.905 L152,151.905 C152,143.081 159.176,135.905 168,135.905 L328,135.905 C336.824,135.905 344,143.081 344,151.905 L344,351.905 Z" id="Shape" fill="#363636" fill-rule="nonzero"></path>
        <path d="M492.704,241.433 L447.04,208.289 L476.592,160.225 C477.936,158.041 478.152,155.345 477.168,152.969 C476.184,150.593 474.128,148.841 471.632,148.249 L416.744,135.177 L425.608,79.457 C426.016,76.929 425.176,74.353 423.368,72.545 C421.56,70.729 419,69.889 416.456,70.297 L360.728,79.161 L347.656,24.273 C347.064,21.777 345.304,19.721 342.936,18.737 C340.56,17.753 337.856,17.961 335.688,19.313 L287.616,48.865 L254.48,3.209 C251.464,-0.943 244.544,-0.943 241.528,3.209 L208.384,48.865 L160.312,19.305 C158.128,17.961 155.424,17.753 153.064,18.729 C150.696,19.713 148.936,21.769 148.344,24.265 L135.28,79.153 L79.552,70.281 C77,69.889 74.44,70.721 72.64,72.529 C70.824,74.345 69.992,76.913 70.4,79.441 L79.264,135.161 L24.368,148.233 C21.872,148.825 19.816,150.577 18.832,152.953 C17.848,155.329 18.064,158.017 19.408,160.209 L48.96,208.281 L3.296,241.425 C1.224,242.937 0,245.345 0,247.905 C0,250.465 1.224,252.873 3.304,254.377 L48.96,287.521 L19.408,335.585 C18.064,337.769 17.848,340.465 18.832,342.841 C19.816,345.217 21.872,346.969 24.368,347.561 L79.256,360.625 L70.392,416.345 C69.984,418.873 70.824,421.449 72.632,423.257 C74.44,425.065 76.976,425.897 79.544,425.505 L142.592,415.473 L140.08,399.665 L87.92,407.969 L96.216,355.809 C96.872,351.673 94.24,347.737 90.168,346.769 L38.816,334.545 L66.464,289.577 C68.656,286.017 67.736,281.369 64.344,278.913 L21.616,247.905 L64.36,216.881 C67.744,214.425 68.664,209.777 66.472,206.217 L38.824,161.249 L90.184,149.025 C94.256,148.057 96.888,144.121 96.232,139.985 L87.936,87.825 L140.096,96.129 C144.144,96.753 148.168,94.145 149.136,90.081 L161.36,38.729 L206.328,66.385 C209.88,68.577 214.528,67.641 216.992,64.265 L248,21.529 L279.016,64.265 C281.48,67.641 286.144,68.577 289.68,66.385 L334.648,38.737 L346.88,90.089 C347.84,94.153 351.744,96.769 355.92,96.137 L408.08,87.833 L399.784,139.985 C399.128,144.121 401.76,148.057 405.832,149.025 L457.184,161.249 L429.536,206.217 C427.344,209.777 428.264,214.425 431.648,216.881 L474.384,247.905 L431.64,278.929 C428.256,281.385 427.336,286.033 429.528,289.593 L457.176,334.561 L405.816,346.785 C401.744,347.753 399.112,351.689 399.768,355.825 L408.064,407.985 L355.904,399.681 L353.392,415.489 L416.44,425.521 C416.864,425.585 417.28,425.617 417.696,425.617 C419.8,425.617 421.848,424.785 423.352,423.273 C425.168,421.457 426,418.889 425.592,416.361 L416.728,360.641 L471.624,347.569 C474.12,346.977 476.176,345.225 477.16,342.849 C478.144,340.473 477.928,337.785 476.584,335.593 L447.032,287.521 L492.696,254.377 C494.776,252.873 496,250.465 496,247.905 C496,245.345 494.776,242.937 492.704,241.433 Z" id="Shape" fill="#363636" fill-rule="nonzero"></path>
        <rect id="Rectangle-path" fill="#363636" fill-rule="nonzero" x="168" y="151.905" width="16" height="16"></rect>
        <rect id="Rectangle-path" fill="#363636" fill-rule="nonzero" x="168" y="183.905" width="16" height="16"></rect>
        <rect id="Rectangle-path" fill="#363636" fill-rule="nonzero" x="168" y="215.905" width="16" height="16"></rect>
    </g>
</svg>