<svg xmlns:rdf="http://www.w3.org/1999/02/22-rdf-syntax-ns#" xmlns="http://www.w3.org/2000/svg" height="300" width="300" version="1.1" xmlns:cc="http://creativecommons.org/ns#" xmlns:dc="http://purl.org/dc/elements/1.1/" viewBox="0 0 300 300">
 <g transform="translate(0 -752.36)">
  <path d="m150 0a150 150 0 0 0 -27.7 2.6758v70.674c54.33 7.301 97.08 50.02 104.41 104.35h70.62a150 150 0 0 0 2.67 -27.7 150 150 0 0 0 -150 -150zm-60 12.721a150 150 0 0 0 -90 137.28 150 150 0 0 0 150 150 150 150 0 0 0 137.39 -90h-167.28-30.11v-30.1-76.6-28.144-62.435zm32.3 93.299v71.68h71.73c-6.74-36.47-35.26-64.97-71.73-71.68z" fill-rule="evenodd" transform="translate(0 752.36)" fill="#4caf50"/>
 </g>
</svg>
