<?xml version="1.0" standalone="no"?>
<!DOCTYPE svg PUBLIC "-//W3C//DTD SVG 20010904//EN"
 "http://www.w3.org/TR/2001/REC-SVG-20010904/DTD/svg10.dtd">
<svg version="1.0" xmlns="http://www.w3.org/2000/svg"
 width="1024.000000pt" height="1024.000000pt" viewBox="0 0 1024.000000 1024.000000"
 preserveAspectRatio="xMidYMid meet">
<metadata>
Created by potrace 1.11, written by Peter Selinger 2001-2013
</metadata>
<g transform="translate(0.000000,1024.000000) scale(0.100000,-0.100000)"
fill="#000000" stroke="none">
<path d="M2018 10235 c-2 -2 -21 -6 -43 -9 -22 -3 -49 -8 -60 -10 -11 -3 -36
-9 -55 -14 -51 -13 -178 -72 -230 -107 -120 -80 -219 -185 -293 -312 -37 -63
-90 -207 -104 -278 -4 -22 -9 -950 -10 -2062 l-3 -2023 57 -1 c32 -1 63 0 68
1 6 1 57 1 115 0 58 -1 112 -2 120 -1 8 1 26 1 40 0 14 0 32 0 40 0 8 0 62 0
120 0 58 0 130 0 160 0 30 1 102 0 160 0 58 -1 112 -1 120 0 8 1 26 1 40 0 14
0 32 0 40 0 8 0 62 0 120 0 58 0 130 0 160 0 30 1 102 0 160 0 58 -1 112 -1
120 0 8 1 26 1 40 0 14 0 32 0 40 0 8 0 62 0 120 0 58 0 130 0 160 0 30 1 102
0 160 0 58 -1 111 -1 118 0 21 2 36 2 72 2 19 0 45 -1 57 -1 18 0 24 9 33 43
20 78 53 182 60 192 4 6 13 27 20 48 12 38 107 218 120 227 4 3 14 19 23 35 8
17 29 45 46 64 17 19 31 37 31 40 0 4 39 46 86 94 125 127 263 229 404 297 36
17 74 36 84 42 25 13 193 67 231 74 17 2 38 7 47 10 65 19 168 29 318 28 149
-1 185 -4 280 -24 30 -6 65 -13 77 -16 12 -2 35 -9 50 -15 16 -6 39 -13 53
-16 13 -2 38 -10 55 -17 100 -43 141 -61 145 -66 3 -3 35 -21 73 -39 37 -19
67 -39 67 -44 0 -4 4 -6 9 -3 5 4 11 3 13 -1 1 -5 38 -34 80 -65 79 -59 184
-160 247 -238 20 -25 44 -54 54 -64 9 -11 17 -26 17 -33 0 -7 5 -13 10 -13 6
0 10 -5 10 -10 0 -6 5 -16 10 -23 20 -24 59 -87 54 -87 -3 0 4 -13 15 -29 12
-16 21 -31 21 -34 0 -2 10 -26 22 -53 12 -27 23 -51 23 -54 1 -3 4 -12 8 -20
10 -25 39 -114 42 -131 2 -9 9 -34 16 -57 l12 -42 331 -1 c182 -1 336 0 341 1
6 1 57 1 115 0 58 -1 112 -2 120 -2 8 1 170 1 360 0 190 0 352 0 360 1 8 0 62
0 120 0 58 -1 112 -1 120 -1 8 1 138 1 288 1 l272 0 -3 2018 c-1 1110 -6 2034
-10 2053 -3 19 -9 49 -13 65 -19 92 -98 258 -151 319 -13 15 -23 29 -23 31 0
8 -119 125 -155 153 -68 53 -235 134 -299 146 -14 2 -30 7 -34 10 -26 16 -131
20 -600 23 l-513 4 0 -278 c0 -153 0 -285 0 -293 0 -8 0 -188 1 -400 1 -400
-4 -644 -15 -695 -11 -57 -35 -134 -57 -182 -12 -26 -22 -50 -22 -53 -2 -8
-59 -104 -65 -110 -3 -3 -19 -22 -35 -43 -118 -159 -312 -280 -521 -328 -40
-8 -197 -22 -250 -20 -77 1 -1182 0 -1243 -2 -45 -1 -82 0 -82 3 0 3 -42 4
-92 2 -51 -1 -147 -2 -213 -1 -66 0 -129 0 -140 -1 -11 -1 -24 -1 -30 -1 -36
0 -250 1 -350 1 -256 -1 -354 9 -462 45 -260 87 -462 279 -563 535 -12 30 -24
66 -26 80 -3 14 -8 34 -11 45 -18 58 -22 127 -22 405 0 135 0 252 0 260 0 8 0
152 0 320 0 168 0 313 0 323 0 9 0 100 -1 202 l0 186 -499 -1 c-275 -1 -501
-3 -503 -5z"/>
<path d="M3622 9453 l3 -788 22 -46 c30 -63 87 -121 146 -149 38 -18 71 -23
150 -27 56 -2 110 -5 120 -7 9 -2 17 1 17 6 0 7 5 6 14 -1 9 -8 16 -8 20 -2 4
5 18 6 34 2 15 -4 38 -5 52 -1 13 3 46 3 73 0 26 -4 50 -3 53 1 2 4 17 4 32 0
15 -4 38 -5 52 -1 14 4 35 3 48 -1 12 -5 22 -5 22 1 0 5 12 5 29 0 15 -4 33
-5 39 -1 5 3 47 4 91 1 45 -3 81 -1 81 4 0 5 6 3 14 -3 9 -8 16 -8 20 -2 4 6
16 7 29 2 12 -4 36 -5 52 -1 17 3 51 3 78 0 26 -4 47 -3 47 1 0 4 13 4 29 -1
15 -4 33 -5 39 -1 5 3 47 4 91 1 45 -3 81 -1 81 4 0 5 6 3 14 -3 9 -8 16 -8
20 -2 4 6 16 7 29 2 12 -4 36 -5 52 -1 17 3 51 3 78 0 26 -4 47 -3 47 1 0 4
13 4 29 -1 15 -4 33 -5 39 -1 5 3 47 4 91 1 45 -3 81 -1 81 4 0 5 6 3 14 -3 9
-8 16 -8 20 -2 4 6 16 7 29 2 12 -4 36 -5 52 -1 17 3 51 3 78 0 26 -4 47 -3
47 1 0 4 13 4 29 -1 15 -4 33 -5 39 -1 5 3 47 4 91 1 45 -3 81 -1 81 4 0 5 6
3 14 -3 9 -8 16 -8 20 -2 4 6 18 6 35 1 16 -4 31 -6 34 -4 2 3 33 6 68 8 117
7 208 68 261 174 l23 47 3 788 3 787 -1501 0 -1501 0 3 -787z"/>
<path d="M4963 6005 c-189 -34 -353 -121 -485 -258 -70 -72 -168 -210 -168
-237 0 -9 -5 -21 -11 -27 -6 -6 -12 -17 -13 -24 -2 -8 -9 -27 -16 -44 -30 -72
-48 -199 -44 -315 2 -63 6 -126 8 -140 8 -45 35 -139 50 -175 9 -20 16 -39 16
-43 1 -4 7 -14 14 -22 7 -8 18 -30 26 -47 7 -18 16 -33 21 -33 5 0 9 -6 9 -12
0 -17 32 -57 110 -136 74 -75 88 -87 145 -122 22 -13 42 -27 45 -30 12 -15
163 -74 235 -93 80 -21 276 -29 365 -15 97 15 316 102 328 130 2 5 8 8 14 8
15 0 91 62 153 125 91 91 205 289 221 384 3 14 7 33 10 41 18 49 24 241 12
346 -15 116 -92 296 -172 399 -40 51 -121 132 -171 171 -37 28 -164 106 -175
107 -3 0 -20 6 -37 14 -35 14 -129 40 -178 49 -64 12 -243 11 -312 -1z"/>
<path d="M1262 4822 l-42 -3 3 -2032 c1 -1118 6 -2042 10 -2055 4 -12 9 -31
12 -43 8 -40 17 -65 53 -149 19 -47 39 -87 44 -88 4 -2 8 -8 8 -13 0 -19 65
-103 135 -173 67 -68 120 -108 196 -150 73 -40 187 -85 228 -89 15 -2 33 -7
41 -13 9 -5 238 -10 543 -12 l528 -4 0 119 c0 65 0 125 0 133 0 8 0 152 0 320
0 168 0 312 0 320 1 8 0 148 0 310 -1 162 -1 297 -1 300 1 3 3 32 5 65 5 84
11 121 35 197 72 233 243 434 467 547 62 31 191 71 248 78 28 3 57 9 66 13 8
5 20 6 26 2 6 -4 45 -5 87 -2 42 3 76 3 76 0 0 -3 42 -4 92 -2 51 1 147 2 213
1 66 0 129 0 140 1 11 1 25 1 30 1 101 -1 257 0 358 2 70 1 127 0 127 -3 0 -3
240 -4 533 -2 292 1 568 2 612 1 44 0 91 0 105 1 36 3 37 3 130 -4 124 -9 168
-18 272 -58 117 -44 226 -115 313 -203 48 -48 115 -132 115 -144 0 -6 5 -11
10 -11 6 0 10 -4 10 -10 0 -5 13 -32 30 -60 16 -27 27 -50 24 -50 -2 0 2 -13
11 -29 15 -30 42 -121 51 -176 13 -75 14 -154 13 -950 0 -11 0 -174 0 -363 l1
-343 517 4 c285 2 529 6 543 10 14 4 39 10 55 14 38 9 36 8 60 17 11 5 38 15
60 23 48 18 158 77 198 106 54 41 175 167 206 214 17 27 35 53 41 60 5 7 10
17 10 24 0 6 8 23 18 37 17 26 54 127 67 187 4 17 10 39 13 50 4 11 8 932 9
2048 l3 2027 -297 1 c-164 1 -302 0 -308 -1 -5 -1 -57 -1 -115 0 -58 1 -112 2
-120 2 -8 -1 -170 -1 -360 0 -190 0 -352 0 -360 -1 -8 0 -62 0 -120 0 -58 1
-112 1 -120 1 -8 -1 -153 -1 -321 -1 l-307 -1 -7 -27 c-5 -16 -9 -32 -10 -38
-2 -5 -9 -30 -16 -55 -7 -25 -13 -47 -14 -50 -13 -66 -170 -373 -205 -400 -3
-3 -16 -20 -28 -37 -94 -133 -288 -303 -457 -399 -77 -43 -224 -108 -263 -115
-4 -1 -23 -7 -42 -14 -19 -8 -62 -19 -95 -26 -33 -7 -67 -14 -75 -16 -79 -17
-366 -23 -450 -9 -25 4 -63 9 -84 12 -22 3 -47 9 -57 14 -9 5 -19 7 -22 3 -4
-3 -13 -1 -20 5 -8 7 -16 10 -19 7 -3 -3 -21 2 -41 10 -20 8 -39 15 -42 15
-39 2 -235 95 -333 158 -150 97 -304 239 -382 352 -13 19 -27 37 -31 40 -3 3
-19 25 -35 50 -89 140 -166 314 -195 445 -5 22 -11 45 -12 52 -5 20 -10 22
-72 22 -33 1 -71 1 -85 2 -14 0 -32 0 -40 0 -8 0 -62 0 -120 0 -58 0 -130 0
-160 0 -30 -1 -102 0 -160 0 -58 1 -112 1 -120 0 -8 -1 -26 -1 -40 0 -14 0
-32 0 -40 0 -8 0 -62 0 -120 0 -58 0 -130 0 -160 0 -30 -1 -102 0 -160 0 -58
1 -112 1 -120 0 -8 -1 -26 -1 -40 0 -14 0 -32 0 -40 0 -8 0 -62 0 -120 0 -58
0 -130 0 -160 0 -30 -1 -102 0 -160 0 -58 1 -112 1 -120 0 -8 -1 -26 -1 -40 0
-14 0 -32 0 -40 0 -39 -1 -224 0 -229 2 -3 1 -25 1 -49 -1z"/>
<path d="M4000 1801 c0 -3 -35 -6 -78 -7 -55 0 -90 -6 -123 -21 -59 -27 -125
-92 -153 -152 -21 -46 -21 -52 -24 -833 l-3 -788 1501 0 1500 0 -3 783 c-2
430 -5 789 -8 797 -42 120 -133 199 -249 215 -25 4 -46 8 -48 10 -2 2 -17 -1
-33 -5 -16 -5 -31 -5 -34 0 -2 4 -19 5 -37 1 -18 -4 -54 -4 -80 -1 -27 4 -48
3 -48 -1 0 -4 -13 -4 -29 1 -15 4 -33 5 -39 1 -5 -3 -47 -4 -91 -1 -45 3 -81
1 -81 -4 0 -5 -6 -3 -14 3 -9 8 -16 8 -20 2 -4 -6 -16 -7 -29 -2 -12 4 -35 5
-52 1 -16 -3 -51 -3 -77 0 -27 4 -48 3 -48 -1 0 -4 -13 -4 -29 1 -15 4 -33 5
-39 1 -5 -3 -47 -4 -91 -1 -45 3 -81 1 -81 -4 0 -5 -6 -3 -14 3 -9 8 -16 8
-20 2 -4 -5 -18 -6 -34 -2 -15 4 -38 5 -52 1 -13 -3 -46 -3 -72 0 -27 4 -48 3
-48 -1 0 -4 -13 -4 -29 1 -15 4 -33 5 -39 1 -5 -3 -47 -4 -91 -1 -45 3 -81 1
-81 -4 0 -5 -6 -3 -14 3 -9 8 -16 8 -20 2 -4 -5 -18 -6 -34 -2 -15 4 -38 5
-52 1 -13 -3 -46 -3 -73 0 -26 4 -50 3 -53 -1 -2 -4 -17 -4 -32 0 -15 4 -38 5
-52 1 -14 -4 -35 -3 -47 1 -13 5 -23 5 -23 -1 0 -5 -12 -5 -29 0 -15 4 -33 5
-39 1 -5 -3 -47 -4 -91 -1 -45 3 -81 1 -81 -4 0 -5 -6 -3 -14 3 -8 7 -17 8
-20 3 -3 -5 -26 -6 -51 -2 -25 4 -48 4 -50 0 -2 -4 -27 -4 -55 0 -27 4 -50 4
-50 1z"/>
</g>
</svg>
